<svg width="72" height="59" fill="none" xmlns="http://www.w3.org/2000/svg"><path d="M26.773 57.595H4.227a2.822 2.822 0 01-2.818-2.81V9.834a2.822 2.822 0 012.818-2.81h22.546a2.822 2.822 0 012.818 2.81v44.953a2.822 2.822 0 01-2.818 2.81z" stroke="#363636" stroke-width="2" stroke-miterlimit="10"/><path d="M22.546 1.405H8.455v5.619h14.09v-5.62z" stroke="#363636" stroke-width="2" stroke-miterlimit="10" stroke-linejoin="round"/><path d="M23.954 29.5H16.91V18.262L7.045 35.119h7.046v11.238L23.955 29.5zm43.819 28.095H45.227a2.822 2.822 0 01-2.818-2.81V9.834a2.822 2.822 0 012.818-2.81h22.546a2.822 2.822 0 012.818 2.81v44.953a2.822 2.822 0 01-2.818 2.81z" stroke="#363636" stroke-width="2" stroke-miterlimit="10"/><path d="M63.545 1.405h-14.09v5.619h14.09v-5.62z" stroke="#363636" stroke-width="2" stroke-miterlimit="10" stroke-linejoin="round"/><path d="M64.954 29.5H57.91V18.262l-9.864 16.857h7.046v11.238L64.954 29.5z" stroke="#363636" stroke-width="2" stroke-miterlimit="10"/></svg>