<svg width="75" height="65" fill="none" xmlns="http://www.w3.org/2000/svg"><path d="M0 30.588h1.923c2.115 0 3.846 1.72 3.846 3.824 0 2.103 1.731 3.823 3.846 3.823 2.116 0 3.846-1.72 3.846-3.823V21.029c0-2.102 1.731-3.823 3.847-3.823 2.115 0 3.846 1.72 3.846 3.823v22.942c0 2.103 1.73 3.823 3.846 3.823 2.115 0 3.846-1.72 3.846-3.823V5.735c0-2.103 1.73-3.823 3.846-3.823s3.846 1.72 3.846 3.823v53.53c0 2.103 1.731 3.823 3.847 3.823 2.115 0 3.846-1.72 3.846-3.823V13.382c0-2.103 1.73-3.823 3.846-3.823 2.115 0 3.846 1.72 3.846 3.823V42.06c0 2.103 1.73 3.823 3.846 3.823s3.846-1.72 3.846-3.823V26.765c0-2.103 1.731-3.824 3.846-3.824 2.116 0 3.847 1.72 3.847 3.824v1.912c0 2.102 1.73 3.823 3.846 3.823H75" stroke="#363636" stroke-width="3" stroke-miterlimit="10"/></svg>