<svg width="72" height="59" viewBox="0 0 72 59" fill="none" xmlns="http://www.w3.org/2000/svg">
<path d="M26.7728 57.5952H4.22736C2.67736 57.5952 1.40918 56.3309 1.40918 54.7857V9.83333C1.40918 8.28809 2.67736 7.0238 4.22736 7.0238H26.7728C28.3228 7.0238 29.591 8.28809 29.591 9.83333V54.7857C29.591 56.3309 28.3228 57.5952 26.7728 57.5952Z" stroke="#363636" stroke-width="2" stroke-miterlimit="10"/>
<path d="M22.5455 1.40475H8.45459V7.0238H22.5455V1.40475Z" stroke="#363636" stroke-width="2" stroke-miterlimit="10" stroke-linejoin="round"/>
<path d="M23.9545 29.5H16.909V18.2619L7.04541 35.119H14.0909V46.3571L23.9545 29.5Z" stroke="#363636" stroke-width="2" stroke-miterlimit="10"/>
<path d="M67.7728 57.5952H45.2274C43.6774 57.5952 42.4092 56.3309 42.4092 54.7857V9.83333C42.4092 8.28809 43.6774 7.0238 45.2274 7.0238H67.7728C69.3228 7.0238 70.591 8.28809 70.591 9.83333V54.7857C70.591 56.3309 69.3228 57.5952 67.7728 57.5952Z" stroke="#363636" stroke-width="2" stroke-miterlimit="10"/>
<path d="M63.5455 1.40475H49.4546V7.0238H63.5455V1.40475Z" stroke="#363636" stroke-width="2" stroke-miterlimit="10" stroke-linejoin="round"/>
<path d="M64.9545 29.5H57.909V18.2619L48.0454 35.119H55.0909V46.3571L64.9545 29.5Z" stroke="#363636" stroke-width="2" stroke-miterlimit="10"/>
</svg>
