<svg width="75" height="65" viewBox="0 0 75 65" fill="none" xmlns="http://www.w3.org/2000/svg">
<path d="M0 30.5882H1.92308C4.03846 30.5882 5.76923 32.3088 5.76923 34.4118C5.76923 36.5147 7.5 38.2353 9.61538 38.2353C11.7308 38.2353 13.4615 36.5147 13.4615 34.4118V21.0294C13.4615 18.9265 15.1923 17.2059 17.3077 17.2059C19.4231 17.2059 21.1538 18.9265 21.1538 21.0294V43.9706C21.1538 46.0735 22.8846 47.7941 25 47.7941C27.1154 47.7941 28.8462 46.0735 28.8462 43.9706V5.7353C28.8462 3.63236 30.5769 1.91177 32.6923 1.91177C34.8077 1.91177 36.5385 3.63236 36.5385 5.7353V59.2647C36.5385 61.3677 38.2692 63.0882 40.3846 63.0882C42.5 63.0882 44.2308 61.3677 44.2308 59.2647V13.3824C44.2308 11.2794 45.9615 9.55883 48.0769 9.55883C50.1923 9.55883 51.9231 11.2794 51.9231 13.3824V42.0588C51.9231 44.1618 53.6538 45.8824 55.7692 45.8824C57.8846 45.8824 59.6154 44.1618 59.6154 42.0588V26.7647C59.6154 24.6618 61.3462 22.9412 63.4615 22.9412C65.5769 22.9412 67.3077 24.6618 67.3077 26.7647V28.6765C67.3077 30.7794 69.0385 32.5 71.1538 32.5H75" stroke="#363636" stroke-width="3" stroke-miterlimit="10"/>
</svg>
